<svg width="258" height="27" viewBox="0 0 258 27" fill="none" xmlns="http://www.w3.org/2000/svg">
<path d="M0.0011393 23.5694V3.20785C-0.00829879 2.91872 0.0409839 2.63066 0.145972 2.36109C0.250961 2.09153 0.409469 1.84607 0.611978 1.63948C0.817749 1.432 1.06438 1.26958 1.33628 1.16252C1.60817 1.05547 1.89939 1.00613 2.19137 1.01762H8.31635C10.6607 1.01762 12.5409 1.56793 13.957 2.66856C15.3732 3.76918 16.0794 5.36506 16.0757 7.45625C16.0917 8.42804 15.826 9.38367 15.3108 10.2078C14.7485 11.0608 13.9322 11.7154 12.9775 12.0789C14.4051 12.5543 15.6519 13.4573 16.549 14.6654C17.3153 15.7716 17.7174 17.0894 17.6992 18.435C17.6992 20.7243 16.9159 22.511 15.3494 23.795C13.7828 25.0791 11.5302 25.7211 8.59151 25.7211H2.19137C1.8999 25.7323 1.60922 25.6834 1.33749 25.5774C1.06576 25.4713 0.818814 25.3104 0.611978 25.1048C0.414254 24.9015 0.258512 24.6614 0.153698 24.3979C0.0488832 24.1344 -0.00294002 23.8529 0.0011393 23.5694ZM3.99641 10.8297H8.33287C9.37358 10.9048 10.4046 10.5867 11.222 9.93816C11.5502 9.62674 11.8076 9.24834 11.9766 8.82864C12.1456 8.40894 12.2224 7.95777 12.2016 7.50579C12.2153 7.07984 12.1252 6.65695 11.9393 6.2735C11.7533 5.89005 11.4769 5.55753 11.1339 5.30454C10.3137 4.73659 9.32944 4.45424 8.33287 4.50107H3.99641V10.8297ZM3.99641 22.3257H8.60803C10.3635 22.3257 11.6678 21.979 12.5318 21.2801C12.9511 20.9445 13.2859 20.5153 13.5095 20.027C13.7331 19.5386 13.8393 19.0047 13.8195 18.468C13.8375 17.8895 13.7309 17.3139 13.5068 16.7802C13.2827 16.2466 12.9464 15.7674 12.5207 15.3752C11.6549 14.5755 10.3507 14.1756 8.60803 14.1756H3.99641V22.3257Z" fill="white"/>
<path d="M25.2607 23.5696V2.99339C25.254 2.72346 25.3023 2.45502 25.4026 2.20433C25.5029 1.95364 25.653 1.72594 25.844 1.53508C26.0287 1.34289 26.2512 1.19089 26.4974 1.08862C26.7436 0.986356 27.0082 0.936009 27.2748 0.940734C27.537 0.938991 27.7968 0.991922 28.0375 1.09615C28.2782 1.20037 28.4945 1.35359 28.6726 1.54606C28.8617 1.73601 29.0108 1.962 29.111 2.21061C29.2112 2.45922 29.2605 2.72539 29.256 2.99339V22.4139H39.943C40.1647 22.4112 40.3848 22.4531 40.59 22.5373C40.7951 22.6214 40.9812 22.746 41.1372 22.9037C41.3003 23.0519 41.4303 23.233 41.5185 23.435C41.6067 23.637 41.6511 23.8554 41.6489 24.0758C41.6518 24.2996 41.6078 24.5215 41.5196 24.7272C41.4315 24.9329 41.3012 25.1178 41.1372 25.27C40.9808 25.4267 40.7944 25.5503 40.5893 25.6335C40.3841 25.7167 40.1643 25.7578 39.943 25.7543H27.4454C27.1548 25.7651 26.8651 25.7159 26.5944 25.6099C26.3236 25.5039 26.0775 25.3432 25.8715 25.1379C25.6698 24.9308 25.5117 24.6852 25.4068 24.4158C25.3019 24.1464 25.2522 23.8586 25.2607 23.5696V23.5696Z" fill="white"/>
<path d="M49.3804 18.479C48.6775 16.8746 48.3194 15.1403 48.3293 13.3886C48.3194 11.637 48.6775 9.90274 49.3804 8.29826C50.0203 6.79218 50.956 5.42983 52.132 4.29197C53.281 3.20922 54.6158 2.34241 56.0722 1.73304C57.5005 1.11528 59.0397 0.795074 60.5958 0.791992C62.1519 0.795074 63.6911 1.11528 65.1193 1.73304C66.5758 2.34241 67.9106 3.20922 69.0596 4.29197C70.2356 5.42983 71.1713 6.79218 71.8111 8.29826C72.5141 9.90274 72.8722 11.637 72.8623 13.3886C72.8722 15.1403 72.5141 16.8746 71.8111 18.479C71.1726 19.9858 70.2368 21.3484 69.0596 22.4853C67.917 23.5781 66.5881 24.4578 65.1359 25.0828C63.7063 25.6959 62.1678 26.0141 60.6123 26.0183C59.0569 26.0141 57.5183 25.6959 56.0888 25.0828C54.6331 24.4694 53.2987 23.601 52.1485 22.5183C50.9617 21.3733 50.02 19.9991 49.3804 18.479ZM53.1721 9.80611C52.72 10.946 52.4921 12.1624 52.5007 13.3886C52.4921 14.6149 52.72 15.8313 53.1721 16.9712C53.5772 18.0185 54.1871 18.9745 54.9661 19.7833C55.7078 20.5383 56.5877 21.1436 57.558 21.5663C58.5221 21.9913 59.5642 22.2106 60.6178 22.2102C61.6714 22.2106 62.7135 21.9913 63.6775 21.5663C64.6478 21.1436 65.5278 20.5383 66.2695 19.7833C67.0485 18.9745 67.6583 18.0185 68.0635 16.9712C68.5155 15.8313 68.7435 14.6149 68.7349 13.3886C68.7435 12.1624 68.5155 10.946 68.0635 9.80611C67.658 8.76156 67.0523 7.8063 66.2805 6.99402C65.5404 6.2396 64.6624 5.6343 63.694 5.21102C62.7245 4.78486 61.6768 4.56554 60.6178 4.56713C59.5642 4.56671 58.5221 4.78602 57.558 5.21102C56.5889 5.63583 55.7094 6.24089 54.9661 6.99402C54.1859 7.80607 53.5759 8.76592 53.1721 9.81713V9.80611Z" fill="white"/>
<path d="M79.7803 13.4328C79.7682 11.672 80.1263 9.92834 80.8314 8.31488C81.466 6.80426 82.4023 5.4391 83.583 4.30308C84.7271 3.21934 86.0584 2.35232 87.5122 1.74415C88.931 1.12709 90.461 0.806836 92.0082 0.803101C94.2253 0.817036 96.3917 1.46844 98.2488 2.67965C98.532 2.8494 98.7642 3.09232 98.921 3.38282C99.0779 3.67333 99.1537 4.0007 99.1403 4.33059C99.1483 4.58463 99.1035 4.83757 99.0088 5.07343C98.9141 5.30928 98.7715 5.52295 98.59 5.70089C98.4108 5.87908 98.1976 6.01955 97.9632 6.11406C97.7288 6.20858 97.4779 6.25522 97.2252 6.25121C96.8341 6.27586 96.4461 6.16719 96.1246 5.943C94.9389 5.10499 93.5312 4.63771 92.0798 4.60027C91.0229 4.60235 89.9791 4.83326 89.0201 5.27714C88.0416 5.72128 87.155 6.34469 86.4061 7.11517C85.633 7.92756 85.0222 8.88019 84.6065 9.92178C84.1525 11.0326 83.9207 12.2217 83.9242 13.4218C83.9186 14.6273 84.1505 15.8222 84.6065 16.9383C85.0211 17.9804 85.632 18.9332 86.4061 19.7448C87.1525 20.5154 88.0399 21.1357 89.0201 21.5719C89.9795 22.014 91.0233 22.2431 92.0798 22.2433C93.5218 22.2104 94.9202 21.7423 96.0916 20.9005C96.4157 20.682 96.8017 20.5739 97.1922 20.5923C97.4451 20.5864 97.6967 20.6322 97.9313 20.7268C98.166 20.8214 98.3789 20.9629 98.5569 21.1427C98.7382 21.3231 98.8805 21.5387 98.9752 21.7763C99.0698 22.0138 99.1148 22.2683 99.1073 22.5239C99.1147 22.8483 99.0361 23.1689 98.8795 23.453C98.7229 23.7372 98.4939 23.9748 98.2158 24.1418C96.3631 25.3606 94.1928 26.0075 91.9752 26.0019C90.4287 25.9973 88.8992 25.679 87.4792 25.0663C86.0288 24.454 84.6985 23.5895 83.5499 22.5129C82.3695 21.383 81.4331 20.0233 80.7984 18.5177C80.105 16.9132 79.7581 15.1805 79.7803 13.4328V13.4328Z" fill="white"/>
<path d="M106.553 23.9822V2.85567C106.551 2.59148 106.604 2.32975 106.707 2.08653C106.81 1.84331 106.962 1.62374 107.153 1.44136C107.333 1.24927 107.55 1.09635 107.791 0.992184C108.033 0.888018 108.293 0.834864 108.556 0.836032C108.818 0.835291 109.078 0.888659 109.318 0.992822C109.559 1.09699 109.775 1.24969 109.954 1.44136C110.145 1.62374 110.297 1.84331 110.4 2.08653C110.503 2.32975 110.556 2.59148 110.554 2.85567V16.0192L122.721 1.5074C122.886 1.29182 123.1 1.11852 123.345 1.00179C123.59 0.885056 123.859 0.828249 124.13 0.836032C124.369 0.836315 124.606 0.885247 124.825 0.979857C125.045 1.07447 125.242 1.21277 125.407 1.38634C125.581 1.54986 125.72 1.74764 125.815 1.96732C125.91 2.187 125.958 2.42386 125.957 2.66307C125.95 3.08588 125.798 3.49349 125.528 3.81871L117.548 13.2456L126.353 23.0136C126.658 23.3403 126.826 23.7719 126.821 24.2188C126.821 24.4514 126.773 24.6815 126.678 24.894C126.583 25.1064 126.444 25.2964 126.271 25.4515C126.11 25.6261 125.914 25.7651 125.696 25.8599C125.478 25.9546 125.243 26.003 125.005 26.0018C124.756 26.0039 124.509 25.9506 124.282 25.846C124.056 25.7413 123.855 25.5878 123.695 25.3965L115.215 16.0412L110.532 21.5443V23.9822C110.534 24.2448 110.482 24.505 110.379 24.7465C110.275 24.988 110.123 25.2056 109.932 25.3855C109.752 25.5746 109.535 25.7249 109.295 25.8271C109.054 25.9293 108.795 25.9813 108.534 25.9798C108.272 25.9817 108.012 25.93 107.771 25.8278C107.53 25.7256 107.312 25.575 107.131 25.3855C106.944 25.2037 106.796 24.9853 106.696 24.7439C106.597 24.5025 106.548 24.2432 106.553 23.9822V23.9822Z" fill="white"/>
<path d="M134.26 23.8776V2.78416C134.249 2.53383 134.293 2.2841 134.388 2.05224C134.483 1.82038 134.627 1.61193 134.811 1.4414C135.14 1.11869 135.583 0.938751 136.043 0.940632C136.464 0.945202 136.876 1.05483 137.244 1.25955C137.611 1.46428 137.921 1.75761 138.146 2.1128L149.862 18.2094V2.99329C149.86 2.72451 149.913 2.45814 150.017 2.21031C150.121 1.96248 150.274 1.73835 150.467 1.55147C150.653 1.35503 150.878 1.19931 151.127 1.09416C151.376 0.989018 151.644 0.936739 151.914 0.940632C152.18 0.940469 152.442 0.995713 152.685 1.1028C152.927 1.20988 153.145 1.36645 153.323 1.56249C153.515 1.74846 153.667 1.97088 153.771 2.21662C153.875 2.46237 153.928 2.72645 153.929 2.99329V24.1363C153.953 24.627 153.783 25.1075 153.455 25.4736C153.315 25.6262 153.145 25.7484 152.956 25.8327C152.767 25.9169 152.562 25.9614 152.355 25.9633C151.925 25.9606 151.502 25.8505 151.125 25.6429C150.748 25.4353 150.43 25.1369 150.198 24.7747L138.327 8.61199V23.8776C138.327 24.1445 138.273 24.4086 138.169 24.6543C138.065 24.9001 137.913 25.1225 137.722 25.3084C137.543 25.5045 137.326 25.6611 137.083 25.7682C136.841 25.8752 136.578 25.9305 136.313 25.9303C136.043 25.9342 135.775 25.8819 135.525 25.7768C135.276 25.6716 135.052 25.5159 134.866 25.3195C134.673 25.132 134.521 24.9077 134.417 24.66C134.313 24.4124 134.26 24.1463 134.26 23.8776V23.8776Z" fill="white"/>
<path d="M162.542 18.479C161.839 16.8746 161.481 15.1403 161.49 13.3886C161.481 11.637 161.839 9.90274 162.542 8.29826C163.179 6.79109 164.115 5.42837 165.293 4.29197C166.442 3.20922 167.777 2.34241 169.233 1.73304C170.662 1.11528 172.201 0.795074 173.757 0.791992C175.313 0.795074 176.852 1.11528 178.28 1.73304C179.736 2.34117 181.069 3.20816 182.215 4.29197C183.393 5.42866 184.328 6.79131 184.967 8.29826C185.67 9.90274 186.028 11.637 186.018 13.3886C186.028 15.1403 185.67 16.8746 184.967 18.479C184.33 19.9867 183.394 21.3496 182.215 22.4853C181.068 23.569 179.735 24.4376 178.28 25.0498C176.851 25.6629 175.312 25.9811 173.757 25.9853C172.201 25.9811 170.663 25.6629 169.233 25.0498C167.778 24.4364 166.443 23.568 165.293 22.4853C164.115 21.3496 163.179 19.9867 162.542 18.479V18.479ZM166.333 9.80611C165.881 10.946 165.653 12.1624 165.662 13.3886C165.653 14.6149 165.881 15.8313 166.333 16.9712C166.738 18.0185 167.348 18.9745 168.127 19.7833C168.868 20.5393 169.748 21.1448 170.719 21.5663C171.683 21.9913 172.725 22.2106 173.779 22.2102C174.833 22.2106 175.875 21.9913 176.839 21.5663C177.809 21.1436 178.689 20.5383 179.431 19.7833C180.21 18.9745 180.819 18.0185 181.225 16.9712C181.677 15.8313 181.905 14.6149 181.896 13.3886C181.905 12.1624 181.677 10.946 181.225 9.80611C180.819 8.76156 180.213 7.8063 179.442 6.99402C178.702 6.2396 177.824 5.6343 176.855 5.21102C175.886 4.78486 174.838 4.56554 173.779 4.56713C172.725 4.56671 171.683 4.78602 170.719 5.21102C169.749 5.63441 168.869 6.23965 168.127 6.99402C167.345 7.80558 166.733 8.76546 166.328 9.81713L166.333 9.80611Z" fill="white"/>
<path d="M191.339 4.02792C191.167 3.87344 191.028 3.68433 190.934 3.4729C190.839 3.26147 190.79 3.03245 190.789 2.80073C190.788 2.56716 190.836 2.33602 190.931 2.12258C191.026 1.90914 191.165 1.71824 191.339 1.56253C191.501 1.39573 191.696 1.26381 191.911 1.17485C192.125 1.08589 192.356 1.04178 192.589 1.04523H208.113C208.344 1.04181 208.574 1.08543 208.787 1.17341C209.001 1.26138 209.195 1.39189 209.357 1.55702C209.523 1.71797 209.655 1.91136 209.744 2.12527C209.833 2.33918 209.877 2.56908 209.874 2.80073C209.878 3.02999 209.834 3.25752 209.744 3.4688C209.655 3.68009 209.523 3.8705 209.357 4.02792C209.196 4.19482 209.003 4.32687 208.789 4.41586C208.575 4.50485 208.345 4.54889 208.113 4.54521H202.461V23.8392C202.465 24.1171 202.412 24.3928 202.305 24.6493C202.198 24.9059 202.04 25.1377 201.839 25.3305C201.653 25.5319 201.426 25.6922 201.174 25.8012C200.922 25.9102 200.65 25.9654 200.376 25.9634C200.096 25.9676 199.818 25.9136 199.56 25.8046C199.303 25.6957 199.071 25.5342 198.879 25.3305C198.68 25.1369 198.522 24.9049 198.415 24.6486C198.308 24.3923 198.254 24.1169 198.257 23.8392V4.54521H192.589C192.356 4.54867 192.125 4.50455 191.911 4.41559C191.696 4.32664 191.501 4.19472 191.339 4.02792V4.02792Z" fill="white"/>
<path d="M217.281 23.5695V3.20792C217.272 2.91879 217.321 2.63072 217.426 2.36116C217.531 2.09159 217.69 1.84613 217.892 1.63954C218.097 1.43194 218.342 1.26938 218.614 1.16229C218.885 1.0552 219.175 1.00595 219.466 1.01769H231.925C232.155 1.01519 232.383 1.05978 232.595 1.14875C232.807 1.23772 232.999 1.36917 233.158 1.53498C233.33 1.68884 233.468 1.87705 233.563 2.08748C233.657 2.29791 233.707 2.52587 233.708 2.75666C233.711 2.98818 233.666 3.21778 233.577 3.43155C233.488 3.64533 233.357 3.83883 233.191 4.00037C233.029 4.16573 232.835 4.29675 232.622 4.38563C232.408 4.47451 232.179 4.51942 231.947 4.51767H221.37V11.5782H228.409C228.641 11.5755 228.872 11.6194 229.088 11.7073C229.303 11.7952 229.499 11.9253 229.663 12.09C229.835 12.2432 229.972 12.4305 230.067 12.6399C230.162 12.8494 230.212 13.0763 230.214 13.3061C230.213 13.541 230.163 13.7731 230.069 13.988C229.974 14.2029 229.836 14.396 229.663 14.5554C229.503 14.7278 229.309 14.8656 229.093 14.9602C228.877 15.0548 228.644 15.1043 228.409 15.1057H221.37V22.2597H232.305C232.536 22.2578 232.764 22.3026 232.977 22.3915C233.19 22.4804 233.382 22.6116 233.543 22.777C233.715 22.9309 233.853 23.1191 233.948 23.3295C234.043 23.5399 234.092 23.7679 234.093 23.9987C234.096 24.2295 234.052 24.4584 233.963 24.6714C233.874 24.8843 233.742 25.0768 233.576 25.2369C233.415 25.4038 233.222 25.5359 233.008 25.6249C232.794 25.7139 232.564 25.7579 232.332 25.7542H219.51C219.22 25.7656 218.93 25.7168 218.659 25.6107C218.388 25.5046 218.142 25.3436 217.936 25.1378C217.727 24.9344 217.56 24.6905 217.448 24.4209C217.335 24.1513 217.279 23.8616 217.281 23.5695V23.5695Z" fill="white"/>
<path d="M240.939 20.95C240.936 20.7122 240.984 20.4767 241.079 20.2586C241.174 20.0405 241.313 19.8449 241.489 19.6843C241.653 19.5105 241.851 19.372 242.07 19.2774C242.29 19.1827 242.527 19.134 242.766 19.134C243.062 19.1153 243.358 19.177 243.623 19.3126C243.887 19.4482 244.11 19.6527 244.268 19.9044C244.822 20.7157 245.567 21.3789 246.436 21.836C247.318 22.3073 248.303 22.5513 249.303 22.5459C250.053 22.5529 250.797 22.43 251.505 22.1827C252.183 21.9467 252.787 21.5346 253.255 20.9885C253.734 20.433 253.991 19.7193 253.975 18.9854C253.992 18.5041 253.902 18.025 253.712 17.5826C253.522 17.1402 253.236 16.7454 252.875 16.4265C251.899 15.6427 250.777 15.0626 249.573 14.7205L247.729 14.1207C245.962 13.6084 244.333 12.7035 242.964 11.4737C242.41 10.9204 241.977 10.258 241.693 9.52852C241.409 8.79904 241.279 8.01841 241.313 7.23624C241.3 6.02329 241.687 4.8399 242.413 3.86834C243.169 2.86142 244.177 2.07171 245.336 1.57902C246.578 1.03864 247.921 0.766756 249.276 0.781092C250.62 0.727182 251.958 0.988761 253.184 1.54493C254.409 2.10109 255.487 2.93636 256.331 3.98388C256.566 4.3016 256.688 4.68916 256.678 5.0845C256.682 5.30691 256.64 5.52776 256.554 5.73323C256.469 5.9387 256.342 6.1244 256.182 6.27871C256.024 6.44007 255.835 6.56725 255.625 6.65244C255.416 6.73764 255.192 6.779 254.966 6.77397C254.688 6.79031 254.411 6.73454 254.161 6.61207C253.912 6.48961 253.698 6.30464 253.541 6.07509C253.094 5.46742 252.491 4.99201 251.796 4.69931C251.001 4.35761 250.142 4.18878 249.276 4.20402C248.263 4.16557 247.267 4.46357 246.442 5.05149C246.084 5.29514 245.793 5.62392 245.594 6.00819C245.395 6.39245 245.295 6.82013 245.303 7.25274C245.287 7.61927 245.348 7.98504 245.483 8.32632C245.617 8.6676 245.822 8.97679 246.084 9.23388C246.859 9.87244 247.748 10.358 248.703 10.6647L250.354 11.215C252.974 12.0955 254.904 13.1594 256.144 14.4068C256.748 15.0034 257.225 15.7173 257.544 16.5046C257.863 17.2919 258.017 18.1361 257.998 18.9854C258 19.8432 257.812 20.6908 257.448 21.4673C257.11 22.2088 256.63 22.8764 256.034 23.4319C255.432 23.9891 254.756 24.4595 254.025 24.8297C253.286 25.2166 252.5 25.507 251.686 25.6937C250.912 25.8731 250.12 25.9654 249.325 25.9689C247.732 25.9844 246.157 25.6223 244.73 24.9123C243.36 24.2269 242.182 23.2113 241.302 21.9571C241.087 21.663 240.961 21.3135 240.939 20.95Z" fill="white"/>
</svg>
