<svg width="59" height="59" viewBox="0 0 59 59" fill="none" xmlns="http://www.w3.org/2000/svg">
<circle cx="29.5" cy="29.5" r="29.5" fill="url(#paint0_linear_350_1237)"/>
<path d="M19.4434 25.3721C19.2632 25.3721 19.1045 25.2414 19.0748 25.0577C18.8535 23.6871 19.5754 22.3193 20.8304 21.7317C22.3328 20.9902 24.2896 21.7078 24.9632 23.2413C25.228 23.8113 25.3148 24.4393 25.2146 25.0578C25.1815 25.2616 24.9891 25.4 24.7857 25.3671C24.5819 25.334 24.4434 25.142 24.4764 24.9382C24.5526 24.468 24.4865 23.9901 24.285 23.5564C23.7733 22.3916 22.2886 21.8458 21.1475 22.4089C20.1933 22.8557 19.6446 23.8958 19.813 24.9385C19.8515 25.1634 19.6711 25.374 19.4434 25.3721V25.3721Z" fill="white"/>
<path d="M42.3338 25.0641C42.0807 25.0683 41.8908 24.8005 41.9822 24.5628C42.7571 22.4225 41.6772 20.0555 39.5749 19.2864C38.1377 18.7605 36.5442 19.0946 35.4165 20.1583C35.2663 20.3 35.0297 20.293 34.8881 20.1429C34.7463 19.9926 34.7533 19.756 34.9035 19.6143C36.2385 18.3551 38.1267 17.9602 39.8319 18.5841C42.3201 19.4945 43.6003 22.2907 42.6854 24.8174C42.6302 24.9695 42.4867 25.0641 42.3338 25.0641V25.0641Z" fill="white"/>
<path d="M28.9001 19.4435C28.7678 19.4435 28.6397 19.3733 28.5717 19.2491C27.7601 17.7655 27.7828 15.9269 28.6309 14.4509C29.878 12.1678 32.9927 11.2875 35.2196 12.6391C36.7311 13.5161 37.6457 15.16 37.6064 16.9294C37.6018 17.133 37.4354 17.295 37.2327 17.295C37.23 17.295 37.2271 17.295 37.2243 17.2949C37.0178 17.2903 36.8543 17.1193 36.8588 16.9129C36.892 15.4159 36.1201 14.0262 34.8444 13.286C32.9614 12.1441 30.3332 12.8942 29.2793 14.8235C28.5601 16.0754 28.5403 17.6337 29.2278 18.8903C29.3269 19.0715 29.2605 19.2987 29.0793 19.3979C29.0222 19.4287 28.9607 19.4435 28.9001 19.4435V19.4435Z" fill="white"/>
<path d="M34.6195 15.3925L34.1728 15.1335L34.4044 14.7309C34.497 14.5698 34.4415 14.3641 34.2804 14.2714C34.1195 14.1788 33.9137 14.2342 33.8209 14.3954L33.5827 14.8097C33.024 14.5787 32.3297 14.8248 32.0373 15.3569C31.6904 15.9601 31.8952 16.7332 32.4938 17.0802L32.749 17.2282C33.0277 17.3897 33.1221 17.7511 32.9596 18.0337C32.8086 18.31 32.4323 18.4159 32.1628 18.2525L31.2983 17.7514C31.1375 17.6582 30.9316 17.713 30.8384 17.8737C30.7452 18.0345 30.8 18.2404 30.9608 18.3336L31.4075 18.5926L31.176 18.9952C31.0834 19.1564 31.1389 19.3621 31.3 19.4547C31.4582 19.5465 31.6663 19.4933 31.7595 19.3308L31.9972 18.9172C32.2455 19.0153 32.5171 19.0299 32.7754 18.9605C33.1015 18.8731 33.3741 18.6631 33.5431 18.3693C33.89 17.766 33.6851 16.9929 33.0866 16.646L32.8314 16.498C32.1726 16.1304 32.7657 15.0853 33.4177 15.4736L34.2821 15.9748C34.4427 16.068 34.6487 16.0133 34.7419 15.8524C34.8351 15.6916 34.7803 15.4857 34.6195 15.3925V15.3925Z" fill="white"/>
<path d="M39.7192 21.399L39.2349 21.222L39.3932 20.7852C39.4565 20.6105 39.3663 20.4175 39.1915 20.3542C39.0172 20.2909 38.8238 20.381 38.7605 20.5559L38.5973 21.0059C38.0068 20.8757 37.3661 21.239 37.1702 21.8138C36.933 22.4684 37.2685 23.1941 37.9182 23.4316L38.1952 23.5329C38.4973 23.6433 38.6527 23.9826 38.5416 24.2893C38.4405 24.5874 38.0885 24.7582 37.7944 24.6441L36.8564 24.3013C36.6821 24.2374 36.4886 24.3272 36.4249 24.5018C36.361 24.6764 36.4509 24.8696 36.6254 24.9334L37.1097 25.1104L36.9514 25.5471C36.888 25.7218 36.9783 25.9148 37.153 25.9782C37.3231 26.0412 37.5209 25.9529 37.584 25.7764L37.7469 25.327C38.3384 25.4579 38.9779 25.0927 39.1742 24.5186C39.4115 23.864 39.076 23.1382 38.4263 22.9008L38.1493 22.7996C37.8472 22.6891 37.6918 22.3498 37.8029 22.0432C37.9039 21.7451 38.2561 21.5744 38.5501 21.6884L39.4881 22.0311C39.6625 22.0949 39.8558 22.0052 39.9196 21.8306C39.9834 21.656 39.8937 21.4628 39.7192 21.399V21.399Z" fill="white"/>
<path d="M46.9963 43.8454C46.9963 43.1383 46.6418 42.5127 46.1016 42.1359C46.6418 41.7591 46.9963 41.1335 46.9963 40.4263C47.0387 39.6564 46.6612 38.9316 46.0476 38.5391C46.6052 38.1344 46.9624 37.4694 46.9381 36.7239C46.9001 35.5544 45.9072 34.6412 44.7371 34.6412H36.4594C35.4201 34.6412 34.5497 35.3821 34.349 36.3634C34.1716 36.3433 33.9916 36.332 33.8089 36.332C32.7359 36.332 31.7214 36.6801 30.8738 37.339C30.7184 37.4598 30.6688 37.682 30.7761 37.8471C30.8976 38.0339 31.1494 38.0729 31.3208 37.9387C32.0383 37.3769 32.8987 37.0799 33.8088 37.0799C36.0517 37.0799 37.8764 38.9248 37.8764 41.1926C37.8764 43.4603 36.0517 45.3053 33.8088 45.3053C31.566 45.3053 29.7413 43.4603 29.7413 41.1926C29.7413 40.549 29.8839 39.9331 30.1655 39.3617C30.2508 39.1886 30.1993 38.9716 30.0357 38.869C29.8448 38.7492 29.5981 38.8225 29.5008 39.0188C29.1642 39.6973 28.9935 40.4287 28.9935 41.1926C28.9935 42.9343 29.9063 44.4642 31.2739 45.3226H25.6668V28.0986L27.7992 31.5633C27.8672 31.6739 27.9878 31.7412 28.1176 31.7412H42.659V33.1456C42.659 33.352 42.8264 33.5194 43.0329 33.5194C43.2394 33.5194 43.4068 33.352 43.4068 33.1456V31.7412H45.8444C46.1356 31.7578 46.3352 31.4097 46.176 31.1713L43.3513 26.5817C43.2833 26.4711 43.1628 26.4038 43.0329 26.4038H36.0144C36.1561 25.9409 36.2293 25.4607 36.2291 24.9695C36.2282 22.291 34.0815 20.1111 31.4436 20.1103C28.8497 20.0577 26.6048 22.3779 26.6608 24.9667C26.661 25.459 26.7349 25.9401 26.8775 26.4038L16.9788 26.4005L15.1972 22.5642C17.0976 21.1808 17.9561 18.6816 17.3517 16.2868L18.9131 15.5557C20.353 17.5526 22.7863 18.5071 25.0868 17.9333L26.2752 20.4923C26.3671 20.6904 26.6105 20.7701 26.804 20.6571C26.9727 20.5585 27.029 20.34 26.9466 20.1628L23.5974 12.9508C23.5162 12.7666 23.2805 12.6807 23.0997 12.7697L12.533 17.7174C12.3463 17.8047 12.2657 18.0266 12.3524 18.2135L16.1543 26.4005H15.1994C15.0696 26.4005 14.949 26.4678 14.881 26.5785L12.0563 31.1714C11.897 31.4101 12.0973 31.7578 12.3885 31.7412H22.4683C22.5981 31.7412 22.7187 31.6738 22.7867 31.5631L24.9191 28.0959V45.3224H15.5733V33.6267C15.5733 33.4314 15.4306 33.257 15.2362 33.2384C15.0132 33.2171 14.8256 33.3919 14.8256 33.6106V45.6963C14.8256 45.9028 14.993 46.0702 15.1994 46.0702H44.9129C46.1192 46.0746 47.067 45.0433 46.9963 43.8454V43.8454ZM31.4434 20.858C33.6693 20.8588 35.4807 22.7034 35.4814 24.9698C35.4816 25.464 35.396 25.9452 35.2278 26.4038H32.7327C32.8025 26.2473 32.8426 26.0744 32.8426 25.8918C32.8426 25.197 32.2815 24.6316 31.5918 24.6316H31.2983C30.9797 24.6316 30.7205 24.3682 30.7205 24.0444C30.7205 23.7206 30.9797 23.4572 31.2983 23.4572H32.2919C32.4777 23.4572 32.6284 23.3065 32.6284 23.1207C32.6284 22.9349 32.4777 22.7842 32.2919 22.7842H31.7815V22.3235C31.7815 22.1377 31.6309 21.987 31.4451 21.987C31.2592 21.987 31.1086 22.1377 31.1086 22.3235V22.8003C30.5088 22.8928 30.0476 23.4146 30.0476 24.0443C30.0476 24.7392 30.6087 25.3045 31.2984 25.3045H31.5918C31.9105 25.3045 32.1697 25.5679 32.1697 25.8918C32.1697 26.1115 32.0501 26.3031 31.8739 26.4038H27.6645C27.4952 25.9441 27.4088 25.4618 27.4087 24.9664C27.361 22.7797 29.2516 20.8141 31.4434 20.858V20.858ZM42.824 27.1516L45.1886 30.9934H28.3266L25.9621 27.1516H42.824ZM23.0772 13.6059L24.7656 17.2415C22.8676 17.6571 20.8429 16.8699 19.6033 15.2325L23.0772 13.6059ZM13.1876 18.2366L16.6611 16.6102C17.1125 18.6158 16.4118 20.6786 14.8757 21.8717L13.1876 18.2366ZM22.2592 30.9934H13.0436L15.4084 27.1483H24.624L22.2592 30.9934ZM37.6004 38.2015C36.9713 37.3907 36.0935 36.7862 35.0833 36.506C35.2172 35.869 35.7835 35.3889 36.4594 35.3889H44.7854C45.5608 35.3889 46.1917 36.0197 46.1917 36.7952C46.1917 37.5706 45.5608 38.2015 44.7854 38.2015H37.6004ZM44.9129 45.3224H36.4457C36.4134 45.3224 36.3814 45.3209 36.3497 45.3187C37.714 44.4596 38.6243 42.9317 38.6243 41.1924C38.6243 40.3836 38.4264 39.6209 38.0787 38.9493H44.8423C45.619 38.9493 46.2486 39.5789 46.2486 40.3556C46.2486 41.1323 45.619 41.7619 44.8423 41.7619H41.9062C41.7109 41.7619 41.5365 41.9047 41.518 42.099C41.4967 42.322 41.6714 42.5097 41.8901 42.5097H44.9129C45.6506 42.5097 46.2486 43.1077 46.2486 43.8454C46.3136 44.6295 45.7092 45.3267 44.9129 45.3224V45.3224Z" fill="white"/>
<path d="M40.0525 42.6225C40.3209 42.6225 40.5385 42.4049 40.5385 42.1364C40.5385 41.868 40.3209 41.6504 40.0525 41.6504C39.784 41.6504 39.5664 41.868 39.5664 42.1364C39.5664 42.4049 39.784 42.6225 40.0525 42.6225Z" fill="white"/>
<path d="M35.2135 42.1156C35.2135 41.4205 34.6495 40.855 33.9561 40.855H33.6607C33.3384 40.855 33.0763 40.5913 33.0763 40.2673C33.0763 39.9433 33.3385 39.6796 33.6607 39.6796H34.6614C34.8472 39.6796 34.9979 39.5289 34.9979 39.3431C34.9979 39.1573 34.8472 39.0066 34.6614 39.0066H34.1449V38.5455C34.1449 38.3597 33.9943 38.209 33.8084 38.209C33.6226 38.209 33.472 38.3597 33.472 38.5455V39.0224C32.8681 39.1142 32.4033 39.6366 32.4033 40.2673C32.4033 40.9624 32.9674 41.5279 33.6607 41.5279H33.9561C34.2784 41.5279 34.5405 41.7915 34.5405 42.1156C34.5405 42.4397 34.2783 42.7033 33.9561 42.7033H32.9554C32.7696 42.7033 32.6189 42.854 32.6189 43.0398C32.6189 43.2256 32.7696 43.3763 32.9554 43.3763H33.4719V43.8374C33.4719 44.0232 33.6226 44.1739 33.8084 44.1739C33.9942 44.1739 34.1449 44.0232 34.1449 43.8374V43.3605C34.7488 43.2687 35.2135 42.7463 35.2135 42.1156Z" fill="white"/>
<defs>
<linearGradient id="paint0_linear_350_1237" x1="12" y1="48" x2="50" y2="6" gradientUnits="userSpaceOnUse">
<stop stop-color="#7A84E1"/>
<stop offset="1" stop-color="#52A7AE"/>
</linearGradient>
</defs>
</svg>
