<svg width="59" height="59" viewBox="0 0 59 59" fill="none" xmlns="http://www.w3.org/2000/svg">
<circle cx="29.5" cy="29.5" r="29.5" fill="url(#paint0_linear_149_4516)"/>
<path d="M46.0456 36.4269C46.0563 36.4052 46.0658 36.3829 46.0733 36.3601C48.2334 31.3747 47.8474 25.2629 45.0419 20.5914C46.5396 18.801 44.5942 16.2369 42.4667 17.229C42.0928 16.8469 41.7003 16.4808 41.2935 16.1346C42.092 13.964 39.4272 12.1835 37.7676 13.8052C32.9439 11.3694 26.9444 11.4003 22.1474 13.8876C20.4409 12.0792 17.575 14.0182 18.6082 16.2872C18.0165 16.8046 17.4564 17.3635 16.94 17.9546C16.4941 18.4649 17.3019 19.1644 17.7447 18.6576C18.2252 18.1078 18.7457 17.5877 19.2955 17.1057C20.3588 17.8726 21.9004 17.4819 22.4838 16.3113C24.4087 16.8654 26.247 17.6606 27.9599 18.6813C27.8165 19.1984 27.8751 19.7759 28.1211 20.2533C26.7113 21.4712 25.4417 22.8488 24.3392 24.3585C23.3214 24.051 22.1995 24.5658 21.7569 25.5296C19.5124 25.5417 17.2609 25.7831 15.0503 26.2504C14.8551 25.8866 14.5592 25.5852 14.2004 25.3833C14.6157 23.7637 15.2736 22.223 16.1596 20.7984C16.5127 20.2307 15.6215 19.6404 15.2523 20.234C14.3102 21.7486 13.6105 23.3864 13.168 25.1081C10.6083 25.1516 10.1786 28.6926 12.6154 29.3738C12.5794 34.4134 14.7584 39.3131 18.5368 42.6508C17.7486 44.7799 20.3074 46.5361 21.9961 45.0344C26.9242 47.6549 33.1526 47.6552 38.0811 45.0352C39.7986 46.7338 42.5494 44.8362 41.582 42.6156C43.5293 40.885 45.0421 38.7682 46.0456 36.4269V36.4269ZM45.3724 35.2319C43.8934 33.7625 42.2748 32.4296 40.5468 31.2595C40.7922 30.4907 40.5789 29.6258 40.0058 29.0583C41.4589 26.6423 42.5997 24.0516 43.4027 21.3453C43.6703 21.3462 43.9275 21.2968 44.1645 21.2075C46.6251 25.3631 47.0751 30.721 45.3724 35.2319ZM20.7859 41.2719C20.3363 36.8675 21.1253 32.4735 23.0782 28.5027C24.2914 28.8813 25.6027 28.0835 25.8383 26.8382C29.5224 27.2923 33.0706 28.3739 36.4005 30.0584C36.2403 30.6809 36.3729 31.3673 36.7544 31.8851C33.001 36.6402 28.0465 40.2184 22.3762 42.2691C22.0326 41.7251 21.4548 41.3445 20.7859 41.2719ZM37.4008 30.5998C37.4008 29.9943 37.8898 29.5018 38.4908 29.5018C39.9369 29.562 39.9364 31.6378 38.4908 31.6978C37.8898 31.6978 37.4008 31.2053 37.4008 30.5998ZM44.4974 19.1787C44.4974 19.7842 44.0085 20.2768 43.4074 20.2768C41.9613 20.2166 41.9617 18.1407 43.4074 18.0807C44.0085 18.0807 44.4974 18.5733 44.4974 19.1787V19.1787ZM41.6502 17.9227C40.9118 18.9603 41.2545 20.4602 42.3678 21.0769C41.59 23.6874 40.4872 26.1863 39.0843 28.5172C38.791 28.4329 38.4654 28.4119 38.1639 28.4581C36.6975 25.3268 34.5638 22.5063 31.9573 20.2535C32.2036 19.7758 32.2623 19.1993 32.1186 18.6814C33.7685 17.6985 35.5357 16.9238 37.3837 16.3731C37.9979 17.559 39.6456 17.8938 40.6685 17.0061C41.0076 17.2977 41.3358 17.6041 41.6502 17.9227V17.9227ZM28.9492 19.2615C28.9492 18.656 29.4382 18.1634 30.0392 18.1634C31.4853 18.2236 31.4849 20.2994 30.0392 20.3594C29.4382 20.3594 28.9492 19.8668 28.9492 19.2615V19.2615ZM39.2837 14.2477C39.8848 14.2477 40.3738 14.7403 40.3738 15.3457C40.3138 16.8024 38.2535 16.802 38.1937 15.3457C38.1937 14.7403 38.6827 14.2477 39.2837 14.2477ZM20.5521 16.4437C19.9511 16.4437 19.4621 15.9511 19.4621 15.3457C19.5221 13.889 21.5824 13.8895 21.6422 15.3457C21.6422 15.9511 21.1532 16.4437 20.5521 16.4437ZM22.7087 15.2637C22.7032 15.1154 22.6828 14.971 22.6489 14.8317C27.1215 12.5187 32.709 12.4784 37.2161 14.7241C37.1582 14.9178 37.1265 15.1226 37.1254 15.3347C35.1816 15.9097 33.3229 16.722 31.5876 17.754C30.7536 16.8913 29.3253 16.891 28.4909 17.754C26.6827 16.6784 24.7416 15.8423 22.7087 15.2637V15.2637ZM28.8285 21.0542C29.551 21.5473 30.5272 21.5474 31.2498 21.0543C33.7383 23.2029 35.7769 25.8925 37.1811 28.8792C37.0859 28.9524 36.997 29.0334 36.9152 29.1211C33.4046 27.3405 29.6583 26.2083 25.767 25.7528C25.6619 25.4348 25.4855 25.1493 25.2565 24.9156C26.3009 23.4968 27.4994 22.2011 28.8285 21.0542V21.0542ZM23.718 25.3353C24.319 25.3353 24.808 25.8279 24.808 26.4333C24.748 27.89 22.6876 27.8896 22.6279 26.4333C22.6279 25.8279 23.1169 25.3353 23.718 25.3353V25.3353ZM12.0584 27.2743C12.0584 26.6688 12.5474 26.1763 13.1484 26.1763C14.5944 26.2365 14.594 28.3122 13.1484 28.3722C12.5475 28.3723 12.0584 27.8798 12.0584 27.2743V27.2743ZM13.6839 29.3734C13.6839 29.3734 15.3068 29.0194 15.3068 27.2884C15.3068 27.2884 19.4711 26.6227 21.5663 26.5994C21.6057 27.117 21.8267 27.5841 22.1657 27.9366C20.0836 32.1255 19.2437 36.7698 19.7272 41.4237C19.519 41.5104 19.3274 41.6291 19.158 41.7732C15.6722 38.6505 13.6839 33.4185 13.6839 29.3734V29.3734ZM20.5521 44.5234C19.9511 44.5234 19.4621 44.0309 19.4621 43.4254C19.4621 42.82 19.9511 42.3274 20.5521 42.3274C21.1451 42.3274 21.6422 42.841 21.6422 43.4254C21.6422 44.0309 21.1532 44.5234 20.5521 44.5234ZM30.0392 45.9395C27.4461 45.9395 24.8817 45.3184 22.5898 44.1393C22.6829 43.8727 22.7239 43.5689 22.7058 43.2859C28.5715 41.1716 33.6972 37.4767 37.5802 32.5635C37.8992 32.7131 38.2532 32.7818 38.6049 32.7633C38.8423 33.6444 39.0298 34.5432 39.1628 35.4419C39.2646 36.13 40.322 35.9762 40.2199 35.2856C40.0788 34.3313 39.8789 33.3769 39.6253 32.4421C39.753 32.3626 39.8717 32.2699 39.9798 32.1662C41.7628 33.3766 43.4251 34.7662 44.931 36.304C43.9971 38.3686 42.6377 40.238 40.9107 41.7826C40.7399 41.6544 40.5495 41.5513 40.3451 41.4779C40.4501 40.4846 40.4959 39.4817 40.4805 38.4898C40.4696 37.7918 39.4011 37.8081 39.412 38.5063C39.4268 39.4598 39.3827 40.4238 39.2812 41.3787C38.0211 41.579 37.1969 42.8857 37.5441 44.1103C35.2378 45.3081 32.6536 45.9395 30.0392 45.9395V45.9395ZM39.6202 44.6163C39.0191 44.6163 38.5302 44.1238 38.5302 43.5183C38.5901 42.0616 40.6505 42.0621 40.7103 43.5183C40.7103 44.1238 40.2213 44.6163 39.6202 44.6163Z" fill="white"/>
<defs>
<linearGradient id="paint0_linear_149_4516" x1="12" y1="48" x2="50" y2="6" gradientUnits="userSpaceOnUse">
<stop stop-color="#7A84E1"/>
<stop offset="1" stop-color="#52A7AE"/>
</linearGradient>
</defs>
</svg>
