<svg width="59" height="59" viewBox="0 0 59 59" fill="none" xmlns="http://www.w3.org/2000/svg">
<circle cx="29.5" cy="29.5" r="29.5" fill="url(#paint0_linear_149_4481)"/>
<path d="M28.917 15.5H30.0837V17.8333H28.917V15.5Z" fill="white"/>
<path d="M22.4854 18.6465L23.3102 17.8217L24.9599 19.4713L24.135 20.2962L22.4854 18.6465Z" fill="white"/>
<path d="M20.167 24.25H22.5003V25.4167H20.167V24.25Z" fill="white"/>
<path d="M22.4844 31.0195L24.134 29.3699L24.9589 30.1947L23.3092 31.8444L22.4844 31.0195Z" fill="white"/>
<path d="M34.0332 19.4727L35.6829 17.823L36.5077 18.6478L34.858 20.2975L34.0332 19.4727Z" fill="white"/>
<path d="M34.0332 30.1953L34.858 29.3705L36.5077 31.0201L35.6829 31.845L34.0332 30.1953Z" fill="white"/>
<path d="M36.5 24.25H38.8333V25.4167H36.5V24.25Z" fill="white"/>
<path d="M42.9621 23.2989C43.706 25.0785 44.0873 26.9887 44.0836 28.9176V29.5009C44.0836 35.934 38.8499 41.1676 32.4169 41.1676C31.8842 41.1668 31.3677 40.9841 30.953 40.6497C30.5383 40.3152 30.2503 39.8491 30.1368 39.3286C30.625 39.1895 31.0547 38.8953 31.3608 38.4904C31.6669 38.0855 31.8329 37.5919 31.8336 37.0842V36.9839C32.1047 36.8883 32.348 36.7273 32.542 36.5152C32.736 36.3031 32.8747 36.0465 32.9458 35.768C33.017 35.4895 33.0184 35.1978 32.9499 34.9186C32.8814 34.6395 32.7452 34.3815 32.5532 34.1676C32.86 33.8259 33.02 33.3772 32.9983 32.9185C32.9767 32.4599 32.7753 32.0282 32.4377 31.7169C32.5345 30.7036 32.9826 29.7561 33.7044 29.0384C34.5359 28.2069 35.1022 27.1475 35.3316 25.9942C35.561 24.8409 35.4433 23.6454 34.9933 22.559C34.5433 21.4726 33.7812 20.544 32.8035 19.8907C31.8257 19.2374 30.6762 18.8887 29.5003 18.8887C28.3243 18.8887 27.1748 19.2374 26.1971 19.8907C25.2193 20.544 24.4573 21.4726 24.0073 22.559C23.5573 23.6454 23.4395 24.8409 23.6689 25.9942C23.8984 27.1475 24.4646 28.2069 25.2961 29.0384C26.0179 29.7561 26.466 30.7036 26.5628 31.7169C26.2252 32.0282 26.0238 32.4599 26.0022 32.9185C25.9806 33.3772 26.1405 33.8259 26.4473 34.1676C26.2553 34.3815 26.1191 34.6395 26.0506 34.9186C25.9821 35.1978 25.9835 35.4895 26.0547 35.768C26.1258 36.0465 26.2646 36.3031 26.4586 36.5152C26.6526 36.7273 26.8959 36.8883 27.1669 36.9839V37.0842C27.1677 37.6081 27.3444 38.1166 27.6688 38.528C27.9931 38.9393 28.4463 39.2298 28.9556 39.3527C29.0808 40.1814 29.4988 40.9378 30.1338 41.4848C30.7688 42.0318 31.5788 42.3331 32.4169 42.3342C39.4933 42.3342 45.2503 36.5772 45.2503 29.5009V28.9176C45.2541 26.8343 44.8421 24.7711 44.0385 22.849L42.9621 23.2989ZM27.1669 33.0009C27.1671 32.8463 27.2286 32.698 27.338 32.5886C27.4473 32.4793 27.5956 32.4178 27.7503 32.4176H31.2503C31.405 32.4176 31.5533 32.479 31.6627 32.5884C31.7721 32.6978 31.8336 32.8462 31.8336 33.0009C31.8336 33.1556 31.7721 33.304 31.6627 33.4134C31.5533 33.5228 31.405 33.5842 31.2503 33.5842H27.7503C27.5956 33.5841 27.4473 33.5226 27.338 33.4132C27.2286 33.3038 27.1671 33.1556 27.1669 33.0009ZM28.4618 26.5842H30.5387L29.6054 31.2509H29.3952L28.4618 26.5842ZM26.1211 28.2134C25.4527 27.5451 24.9976 26.6935 24.8132 25.7665C24.6288 24.8395 24.7234 23.8786 25.0851 23.0054C25.4469 22.1322 26.0594 21.3858 26.8453 20.8607C27.6311 20.3356 28.5551 20.0553 29.5003 20.0553C30.4454 20.0553 31.3694 20.3356 32.1553 20.8607C32.9412 21.3858 33.5537 22.1322 33.9154 23.0054C34.2771 23.8786 34.3717 24.8395 34.1873 25.7665C34.0029 26.6935 33.5478 27.5451 32.8795 28.2134C32.0523 29.0365 31.5073 30.1005 31.3226 31.2527C31.2985 31.2518 31.2745 31.2509 31.2503 31.2509H30.7952L31.8223 26.1153C31.8392 26.0307 31.8371 25.9434 31.8162 25.8596C31.7953 25.7759 31.7561 25.6978 31.7014 25.6311C31.6467 25.5643 31.5778 25.5106 31.4998 25.4737C31.4218 25.4367 31.3366 25.4176 31.2503 25.4176H27.7503C27.664 25.4176 27.5787 25.4367 27.5007 25.4737C27.4227 25.5106 27.3539 25.5643 27.2991 25.6311C27.2444 25.6978 27.2052 25.7759 27.1843 25.8596C27.1634 25.9434 27.1613 26.0307 27.1783 26.1153L28.2054 31.2509H27.7503C27.726 31.2509 27.702 31.2518 27.678 31.2527C27.4933 30.1005 26.9482 29.0365 26.1211 28.2134ZM27.7503 35.9176C27.5956 35.9176 27.4472 35.8561 27.3378 35.7467C27.2284 35.6373 27.1669 35.489 27.1669 35.3342C27.1669 35.1795 27.2284 35.0312 27.3378 34.9218C27.4472 34.8124 27.5956 34.7509 27.7503 34.7509H31.2503C31.405 34.7509 31.5533 34.8124 31.6627 34.9218C31.7721 35.0312 31.8336 35.1795 31.8336 35.3342C31.8336 35.489 31.7721 35.6373 31.6627 35.7467C31.5533 35.8561 31.405 35.9176 31.2503 35.9176H27.7503ZM28.3336 37.0842H30.6669C30.6669 37.3937 30.544 37.6904 30.3252 37.9092C30.1064 38.128 29.8097 38.2509 29.5003 38.2509C29.1908 38.2509 28.8941 38.128 28.6753 37.9092C28.4565 37.6904 28.3336 37.3937 28.3336 37.0842Z" fill="white"/>
<path d="M16.5591 35.6465C15.399 33.4238 14.8321 30.9393 14.9131 28.4334C14.9941 25.9275 15.7203 23.4849 17.0216 21.3418C18.3228 19.1986 20.155 17.4275 22.341 16.1997C24.527 14.9718 26.9928 14.3288 29.5 14.3327H29.5026C31.6337 14.3278 33.7397 14.794 35.6696 15.6981L36.1638 14.6412C34.0793 13.6646 31.8047 13.1608 29.5028 13.1661H29.5C26.7941 13.167 24.1341 13.8648 21.7761 15.1923C19.4182 16.5197 17.4419 18.4321 16.0377 20.7451C14.6335 23.0581 13.8486 25.6937 13.7587 28.3981C13.6688 31.1025 14.277 33.7845 15.5245 36.1856L16.5591 35.6465Z" fill="white"/>
<path d="M22.8359 43.1916C24.3669 43.9078 26.0039 44.3709 27.6831 44.563L27.8163 43.404C26.2621 43.2262 24.7471 42.7975 23.3301 42.1348L22.8359 43.1916Z" fill="white"/>
<path d="M45.2497 12H38.833C38.369 12.0005 37.9242 12.1851 37.5962 12.5131C37.2681 12.8412 37.0835 13.286 37.083 13.75V19.3417L35.5039 20.9208C35.4223 21.0024 35.3667 21.1063 35.3442 21.2195C35.3217 21.3327 35.3333 21.45 35.3774 21.5566C35.4216 21.6631 35.4963 21.7543 35.5923 21.8184C35.6882 21.8825 35.801 21.9167 35.9163 21.9167H45.2497C45.7136 21.9161 46.1585 21.7316 46.4865 21.4035C46.8146 21.0754 46.9992 20.6306 46.9997 20.1667V13.75C46.9992 13.286 46.8146 12.8412 46.4865 12.5131C46.1585 12.1851 45.7136 12.0005 45.2497 12ZM45.833 20.1667C45.8328 20.3213 45.7713 20.4696 45.662 20.579C45.5526 20.6883 45.4043 20.7498 45.2497 20.75H37.3246L38.0788 19.9958C38.1882 19.8864 38.2497 19.7381 38.2497 19.5833V13.75C38.2499 13.5953 38.3114 13.4471 38.4207 13.3377C38.5301 13.2284 38.6784 13.1668 38.833 13.1667H45.2497C45.4043 13.1668 45.5526 13.2284 45.662 13.3377C45.7713 13.4471 45.8328 13.5953 45.833 13.75V20.1667Z" fill="white"/>
<path d="M40.583 13.75H42.9163V14.9167H40.583V13.75Z" fill="white"/>
<path d="M44.083 13.75H45.2497V14.9167H44.083V13.75Z" fill="white"/>
<path d="M39.417 15.5H41.7503V16.6667H39.417V15.5Z" fill="white"/>
<path d="M42.917 15.5H45.2503V16.6667H42.917V15.5Z" fill="white"/>
<path d="M39.417 17.25H42.917V18.4167H39.417V17.25Z" fill="white"/>
<path d="M44.083 17.25H45.2497V18.4167H44.083V17.25Z" fill="white"/>
<path d="M39.417 19H41.7503V20.1667H39.417V19Z" fill="white"/>
<path d="M23.6223 37.4441C23.5781 37.3375 23.5033 37.2464 23.4074 37.1823C23.3115 37.1182 23.1987 37.084 23.0833 37.084H13.75C13.286 37.0845 12.8412 37.2691 12.5131 37.5971C12.1851 37.9252 12.0005 38.37 12 38.834V45.2507C12.0005 45.7146 12.1851 46.1594 12.5131 46.4875C12.8412 46.8156 13.286 47.0001 13.75 47.0007H20.1667C20.6306 47.0001 21.0754 46.8156 21.4035 46.4875C21.7316 46.1594 21.9161 45.7146 21.9167 45.2507V39.6589L23.4958 38.0798C23.5774 37.9982 23.6329 37.8943 23.6555 37.7811C23.678 37.668 23.6664 37.5507 23.6223 37.4441ZM20.9209 39.0048C20.8115 39.1142 20.75 39.2626 20.75 39.4173V45.2507C20.7498 45.4053 20.6883 45.5536 20.5789 45.6629C20.4696 45.7723 20.3213 45.8338 20.1667 45.834H13.75C13.5953 45.8338 13.4471 45.7723 13.3377 45.6629C13.2284 45.5536 13.1668 45.4053 13.1667 45.2507V38.834C13.1668 38.6793 13.2284 38.5311 13.3377 38.4217C13.4471 38.3123 13.5953 38.2508 13.75 38.2507H21.6751L20.9209 39.0048Z" fill="white"/>
<path d="M17.25 44.084H18.4167V45.2507H17.25V44.084Z" fill="white"/>
<path d="M13.75 44.084H16.0833V45.2507H13.75V44.084Z" fill="white"/>
<path d="M18.417 42.334H19.5837V43.5007H18.417V42.334Z" fill="white"/>
<path d="M13.75 42.334H17.25V43.5007H13.75V42.334Z" fill="white"/>
<path d="M16.083 40.584H19.583V41.7507H16.083V40.584Z" fill="white"/>
<path d="M13.75 40.584H14.9167V41.7507H13.75V40.584Z" fill="white"/>
<path d="M14.917 38.834H19.5837V40.0007H14.917V38.834Z" fill="white"/>
<defs>
<linearGradient id="paint0_linear_149_4481" x1="12" y1="48" x2="50" y2="6" gradientUnits="userSpaceOnUse">
<stop stop-color="#7A84E1"/>
<stop offset="1" stop-color="#52A7AE"/>
</linearGradient>
</defs>
</svg>
