<svg width="30" height="30" viewBox="0 0 30 30" fill="none" xmlns="http://www.w3.org/2000/svg">
<rect width="29.9913" height="29.9913" rx="7.86125" fill="url(#paint0_linear_145_2081)"/>
<path d="M5 15.0627V10.766C5 9.91625 5.51454 9.2971 6.35466 9.18074C6.84518 9.11295 7.27698 9.29336 7.62712 9.63549C8.46031 10.4489 9.28442 11.272 10.1128 12.0907C10.5864 12.5583 11.0611 13.025 11.5368 13.4908C11.697 13.6509 11.7626 13.6434 11.9009 13.4545C12.7148 12.3437 13.5235 11.2293 14.339 10.1201C14.5659 9.81217 14.7559 9.45615 15.1487 9.31951C15.3532 9.24959 15.572 9.17967 15.785 9.1786C18.1897 9.16971 20.596 9.16882 23.004 9.17593C23.9113 9.17593 24.5572 9.85327 24.4728 10.695C24.4093 11.3355 23.8361 11.9029 23.1918 11.9109C21.8457 11.929 20.4996 11.9194 19.1529 11.928C19.0355 11.928 18.9181 11.9776 18.8007 12.0037C18.8498 12.1105 18.8775 12.2365 18.9507 12.324C19.4027 12.8652 19.8703 13.3915 20.3213 13.9349C20.7868 14.4937 20.9698 15.2511 20.4163 15.9439C20.0224 16.4376 19.6098 16.9164 19.2042 17.4016C19.0894 17.5393 18.9656 17.6684 18.8578 17.8131C18.8188 17.8665 18.7793 17.9636 18.8044 18.0036C18.8375 18.057 18.9266 18.089 18.9976 18.1104C19.0567 18.1204 19.1169 18.1218 19.1764 18.1147C20.4831 18.1147 21.7918 18.1109 23.0963 18.1147C23.6327 18.1147 24.0501 18.3655 24.3122 18.8256C24.7258 19.5526 24.2513 20.5475 23.4048 20.7284C23.1379 20.7861 22.8492 20.7818 22.5711 20.7818C20.4713 20.7856 18.3715 20.7888 16.2728 20.7781C15.9937 20.7742 15.7167 20.729 15.4508 20.6441C14.7175 20.4151 14.3833 19.6561 14.7538 18.9575C15.034 18.4237 15.3943 17.9311 15.7433 17.4395C16.2851 16.6821 16.8482 15.9402 17.4081 15.1977C17.5106 15.0611 17.5085 14.9565 17.3969 14.8284C16.8829 14.2343 16.3758 13.6349 15.864 13.0392C15.7273 12.8791 15.6675 12.8748 15.5368 13.0456C15.0372 13.7016 14.5451 14.364 14.0497 15.0237C13.6352 15.5763 13.2201 16.1289 12.8045 16.6815C12.4917 17.0963 11.793 17.2489 11.2566 16.9868C11.0271 16.8675 10.8175 16.7132 10.6353 16.5294C9.8598 15.779 9.09921 15.013 8.3274 14.2588C8.26015 14.1937 8.15073 14.1718 8.06053 14.1297C8.02797 14.2242 7.96766 14.3186 7.96766 14.4131C7.96018 16.0111 7.96339 17.6092 7.95805 19.2078C7.95485 20.0148 7.4243 20.6601 6.66263 20.8048C6.46114 20.8464 6.25286 20.8424 6.05313 20.7929C5.8534 20.7435 5.66731 20.6498 5.50855 20.519C5.34979 20.3881 5.22241 20.2232 5.13579 20.0366C5.04916 19.8499 5.0055 19.6462 5.00801 19.4405C5.00374 17.9818 5.00801 16.523 5.00801 15.0637L5 15.0627Z" fill="white"/>
<defs>
<linearGradient id="paint0_linear_145_2081" x1="-6.25" y1="37.9167" x2="38.3333" y2="-1.25" gradientUnits="userSpaceOnUse">
<stop stop-color="#8769EE"/>
<stop offset="1" stop-color="#55CFBE"/>
</linearGradient>
</defs>
</svg>
