<svg width="105" height="50" viewBox="0 0 105 50" fill="none" xmlns="http://www.w3.org/2000/svg">
<g clip-path="url(#clip0_145_1946)">
<path d="M4.57815 33.5679H1.2207V36.9253H4.57815V33.5679Z" fill="#9945FF"/>
<path d="M4.57815 26.8551H1.2207V30.2125H4.57815V26.8551Z" fill="#9945FF"/>
<path d="M4.57815 20.1403H1.2207V23.4977H4.57815V20.1403Z" fill="#9945FF"/>
<path d="M15.1699 33.5679H11.8125V36.9253H15.1699V33.5679Z" fill="#14F195"/>
<path d="M15.1699 26.8551H11.8125V30.2125H15.1699V26.8551Z" fill="#14F195"/>
<path d="M15.1699 20.1403H11.8125V23.4977H15.1699V20.1403Z" fill="#14F195"/>
<path d="M4.57815 13.4276H1.2207V16.7851H4.57815V13.4276Z" fill="#9945FF"/>
<path d="M26.1231 33.5679H22.7656V36.9253H26.1231V33.5679Z" fill="#9945FF"/>
<path d="M26.1231 26.8551H22.7656V30.2125H26.1231V26.8551Z" fill="#9945FF"/>
<path d="M26.1231 20.1403H22.7656V23.4977H26.1231V20.1403Z" fill="#9945FF"/>
<path d="M26.1231 13.4276H22.7656V16.7851H26.1231V13.4276Z" fill="#9945FF"/>
<path d="M37.0957 33.5679H33.7383V36.9253H37.0957V33.5679Z" fill="#14F195"/>
<path d="M37.0957 26.8551H33.7383V30.2125H37.0957V26.8551Z" fill="#14F195"/>
<path d="M47.7295 33.5679H44.3721V36.9253H47.7295V33.5679Z" fill="#9945FF"/>
<path d="M47.7295 26.8551H44.3721V30.2125H47.7295V26.8551Z" fill="#9945FF"/>
<path d="M80.3018 33.5679H76.9443V36.9253H80.3018V33.5679Z" fill="#14F195"/>
<path d="M80.3018 26.8551H76.9443V30.2125H80.3018V26.8551Z" fill="#14F195"/>
<path d="M37.0957 20.1403H33.7383V23.4977H37.0957V20.1403Z" fill="#14F195"/>
<path d="M58.7256 33.5679H55.3682V36.9253H58.7256V33.5679Z" fill="#14F195"/>
<path d="M58.7256 26.8551H55.3682V30.2125H58.7256V26.8551Z" fill="#14F195"/>
<path d="M58.7256 20.1403H55.3682V23.4977H58.7256V20.1403Z" fill="#14F195"/>
<path d="M69.6582 33.5679H66.3008V36.9253H69.6582V33.5679Z" fill="#9945FF"/>
<path d="M69.6582 26.8551H66.3008V30.2125H69.6582V26.8551Z" fill="#9945FF"/>
<path d="M69.6582 20.1403H66.3008V23.4977H69.6582V20.1403Z" fill="#9945FF"/>
<path d="M102.264 33.5679H98.9062V36.9253H102.264V33.5679Z" fill="#14F195"/>
<path d="M102.264 26.8551H98.9062V30.2125H102.264V26.8551Z" fill="#14F195"/>
<path d="M102.264 20.1403H98.9062V23.4977H102.264V20.1403Z" fill="#14F195"/>
<path d="M37.0957 13.4276H33.7383V16.7851H37.0957V13.4276Z" fill="#14F195"/>
<path d="M90.9727 33.5679H87.6152V36.9253H90.9727V33.5679Z" fill="#9945FF"/>
<path d="M90.9727 26.8551H87.6152V30.2125H90.9727V26.8551Z" fill="#9945FF"/>
<path d="M90.9727 20.1403H87.6152V23.4977H90.9727V20.1403Z" fill="#9945FF"/>
<path d="M90.9727 13.4276H87.6152V16.7851H90.9727V13.4276Z" fill="#9945FF"/>
<path d="M26.1231 6.71265H22.7656V10.0701H26.1231V6.71265Z" fill="#9945FF"/>
<path d="M26.1231 0H22.7656V3.35745H26.1231V0Z" fill="#9945FF"/>
<path d="M-0.00046469 49.0214V40.8108C-0.00427048 40.6943 0.0155886 40.5781 0.0579239 40.4694C0.100259 40.3607 0.164189 40.2617 0.245848 40.1784C0.328823 40.0948 0.428289 40.0293 0.537927 39.9861C0.647565 39.9429 0.76498 39.923 0.882719 39.9277H3.35254C4.29786 39.9277 5.05604 40.1496 5.62708 40.5934C6.19812 41.0372 6.4829 41.6807 6.48143 42.524C6.48784 42.9158 6.38071 43.3012 6.17297 43.6335C5.94624 43.9774 5.61709 44.2414 5.23209 44.388C5.80775 44.5797 6.31053 44.9438 6.67226 45.4309C6.98483 45.882 7.14713 46.4201 7.13605 46.9688C7.13605 47.8919 6.8202 48.6123 6.18851 49.1301C5.55681 49.6479 4.64848 49.9068 3.46349 49.9068H0.882719C0.765187 49.9113 0.647986 49.8916 0.538415 49.8488C0.428844 49.8061 0.329253 49.7412 0.245848 49.6583C0.163956 49.5742 0.0999163 49.4745 0.0575853 49.365C0.0152544 49.2556 -0.00448953 49.1387 -0.00046469 49.0214ZM1.61057 43.8842H3.3592C3.77885 43.9145 4.19459 43.7863 4.52421 43.5248C4.65656 43.3992 4.76034 43.2466 4.8285 43.0774C4.89665 42.9081 4.92758 42.7262 4.9192 42.5439C4.92471 42.3722 4.88841 42.2016 4.81342 42.047C4.73843 41.8924 4.62699 41.7583 4.4887 41.6563C4.15796 41.4273 3.76105 41.3134 3.3592 41.3323H1.61057V43.8842ZM1.61057 48.5199H3.47015C4.17803 48.5199 4.70395 48.3801 5.05235 48.0983C5.22142 47.9629 5.35646 47.7899 5.44663 47.5929C5.5368 47.396 5.5796 47.1807 5.57161 46.9643C5.5789 46.731 5.5359 46.4989 5.44554 46.2837C5.35518 46.0685 5.21956 45.8753 5.04791 45.7172C4.69878 45.3947 4.17286 45.2334 3.47015 45.2334H1.61057V48.5199Z" fill="white"/>
<path d="M10.1859 49.0214V40.7243C10.1832 40.6155 10.2027 40.5072 10.2431 40.4061C10.2836 40.305 10.3441 40.2132 10.4211 40.1363C10.4956 40.0588 10.5853 39.9975 10.6846 39.9562C10.7839 39.915 10.8906 39.8947 10.9981 39.8966C11.1039 39.8959 11.2086 39.9172 11.3056 39.9593C11.4027 40.0013 11.4899 40.0631 11.5617 40.1407C11.638 40.2173 11.6981 40.3084 11.7385 40.4087C11.7789 40.5089 11.7988 40.6162 11.797 40.7243V48.5554H16.1064C16.1958 48.5543 16.2845 48.5712 16.3673 48.6051C16.45 48.6391 16.525 48.6893 16.5879 48.7529C16.6537 48.8127 16.7061 48.8857 16.7417 48.9671C16.7772 49.0486 16.7952 49.1367 16.7943 49.2256C16.7955 49.3158 16.7777 49.4053 16.7421 49.4882C16.7066 49.5711 16.6541 49.6457 16.5879 49.7071C16.5249 49.7703 16.4497 49.8201 16.367 49.8537C16.2843 49.8872 16.1956 49.9038 16.1064 49.9024H11.0669C10.9497 49.9067 10.8329 49.8869 10.7237 49.8441C10.6145 49.8014 10.5153 49.7366 10.4322 49.6538C10.3509 49.5703 10.2872 49.4713 10.2449 49.3626C10.2025 49.254 10.1825 49.1379 10.1859 49.0214Z" fill="white"/>
<path d="M19.9112 46.9688C19.6316 46.3206 19.4873 45.6221 19.4873 44.9161C19.4873 44.2102 19.6316 43.5117 19.9112 42.8635C20.1692 42.2562 20.5465 41.7068 21.0207 41.248C21.4841 40.8114 22.0223 40.4619 22.6096 40.2162C23.1851 39.9658 23.8061 39.8367 24.4337 39.8367C25.0613 39.8367 25.6822 39.9658 26.2577 40.2162C26.845 40.4619 27.3833 40.8114 27.8466 41.248C28.3208 41.7068 28.6981 42.2562 28.9561 42.8635C29.2358 43.5117 29.38 44.2102 29.38 44.9161C29.38 45.6221 29.2358 46.3206 28.9561 46.9688C28.6986 47.5764 28.3213 48.1258 27.8466 48.5843C27.3858 49.0249 26.85 49.3796 26.2644 49.6317C25.6885 49.8806 25.0677 50.009 24.4403 50.009C23.8129 50.009 23.1922 49.8806 22.6163 49.6317C22.0293 49.3843 21.4912 49.0341 21.0274 48.5976C20.5489 48.1359 20.1691 47.5817 19.9112 46.9688ZM21.4402 43.4715C21.0808 44.3995 21.0808 45.4283 21.4402 46.3563C21.6035 46.7786 21.8495 47.1641 22.1636 47.4903C22.4626 47.7947 22.8175 48.0388 23.2088 48.2092C23.5976 48.3804 24.0177 48.4688 24.4426 48.4688C24.8674 48.4688 25.2875 48.3804 25.6764 48.2092C26.0676 48.0388 26.4224 47.7947 26.7215 47.4903C27.0356 47.1641 27.2816 46.7786 27.4449 46.3563C27.8043 45.4283 27.8043 44.3995 27.4449 43.4715C27.2814 43.0503 27.0372 42.6651 26.726 42.3376C26.4275 42.0334 26.0735 41.7893 25.683 41.6186C25.293 41.4474 24.8718 41.359 24.4459 41.359C24.02 41.359 23.5987 41.4474 23.2088 41.6186C22.818 41.7899 22.4633 42.0339 22.1636 42.3376C21.849 42.665 21.603 43.0521 21.4402 43.476V43.4715Z" fill="white"/>
<path d="M32.17 44.9338C32.1651 44.2238 32.3095 43.5207 32.5939 42.8701C32.8498 42.261 33.2273 41.7105 33.7034 41.2524C34.1648 40.8154 34.7016 40.4658 35.2878 40.2205C35.86 39.9717 36.4769 39.8426 37.1008 39.8411C37.9948 39.8467 38.8684 40.1094 39.6172 40.5978C39.7158 40.6603 39.7989 40.7444 39.8603 40.8436C39.9218 40.9429 39.9601 41.0547 39.9722 41.1708C39.9844 41.2869 39.9702 41.4042 39.9306 41.514C39.891 41.6238 39.8271 41.7233 39.7437 41.8049C39.6714 41.8768 39.5855 41.9334 39.491 41.9716C39.3965 42.0097 39.2953 42.0285 39.1934 42.0268C39.0394 42.0343 38.8873 41.9906 38.7607 41.9026C38.3519 41.6066 37.8709 41.4262 37.3684 41.3806C36.8658 41.3349 36.3602 41.4255 35.9047 41.6429C35.5102 41.822 35.1527 42.0734 34.8507 42.3841C34.5389 42.7117 34.2926 43.0958 34.125 43.5158C33.758 44.4232 33.758 45.4378 34.125 46.3451C34.2922 46.7654 34.5385 47.1496 34.8507 47.4769C35.1517 47.7876 35.5095 48.0377 35.9047 48.2136C36.2921 48.3896 36.713 48.4797 37.1385 48.4777C37.72 48.4644 38.2839 48.2757 38.7562 47.9362C38.8869 47.8481 39.0426 47.8045 39.2 47.8119C39.4078 47.8131 39.6067 47.8963 39.7534 48.0435C39.9001 48.1906 39.9828 48.3897 39.9834 48.5975C39.9864 48.7283 39.9547 48.8576 39.8915 48.9721C39.8284 49.0867 39.7361 49.1826 39.6239 49.2499C38.8768 49.7414 38.0017 50.0022 37.1075 49.9999C36.4838 49.9981 35.8671 49.8698 35.2945 49.6227C34.7097 49.3758 34.1732 49.0272 33.7101 48.5931C33.2341 48.1375 32.8565 47.5892 32.6005 46.982C32.3144 46.3372 32.1677 45.6393 32.17 44.9338Z" fill="white"/>
<path d="M42.9659 49.1878V40.6688C42.9652 40.5623 42.9863 40.4567 43.0279 40.3587C43.0695 40.2606 43.1307 40.1721 43.2078 40.0985C43.2802 40.0213 43.3677 39.9598 43.4648 39.9178C43.562 39.8757 43.6667 39.854 43.7725 39.854C43.8784 39.854 43.9831 39.8757 44.0802 39.9178C44.1774 39.9598 44.2649 40.0213 44.3373 40.0985C44.4144 40.1721 44.4756 40.2606 44.5172 40.3587C44.5588 40.4567 44.5799 40.5623 44.5792 40.6688V45.9768L49.4855 40.1251C49.552 40.0382 49.6381 39.9683 49.7369 39.9213C49.8357 39.8742 49.9442 39.8513 50.0536 39.8544C50.15 39.8545 50.2453 39.8743 50.3338 39.9124C50.4224 39.9506 50.5022 40.0063 50.5684 40.0763C50.6388 40.1423 50.6949 40.222 50.7331 40.3106C50.7713 40.3992 50.7907 40.4947 50.7903 40.5912C50.7873 40.7616 50.7262 40.926 50.6172 41.0572L47.3996 44.8584L50.9501 48.7973C51.0731 48.929 51.1406 49.103 51.1387 49.2832C51.1389 49.377 51.1191 49.4698 51.0809 49.5555C51.0427 49.6411 50.9867 49.7178 50.9168 49.7803C50.8518 49.8507 50.7729 49.9068 50.685 49.945C50.5971 49.9832 50.5023 50.0027 50.4064 50.0022C50.3058 50.003 50.2063 49.9816 50.115 49.9394C50.0237 49.8972 49.9428 49.8353 49.8783 49.7581L46.4587 45.9857L44.5703 48.2048V49.1878C44.5594 49.3944 44.4697 49.589 44.3197 49.7314C44.1696 49.8738 43.9706 49.9532 43.7637 49.9532C43.5568 49.9532 43.3577 49.8738 43.2077 49.7314C43.0576 49.589 42.9679 49.3944 42.957 49.1878H42.9659Z" fill="white"/>
<path d="M54.1384 49.1456V40.6399C54.1339 40.539 54.1514 40.4383 54.1897 40.3448C54.2281 40.2513 54.2863 40.1673 54.3603 40.0985C54.4929 39.9684 54.6715 39.8958 54.8574 39.8966C55.0269 39.8984 55.1932 39.9426 55.3413 40.0252C55.4893 40.1077 55.6144 40.226 55.705 40.3692L60.4383 46.86V40.7243C60.4376 40.6159 60.4588 40.5085 60.5008 40.4085C60.5427 40.3086 60.6045 40.2182 60.6824 40.1429C60.7573 40.0637 60.8479 40.0009 60.9484 39.9585C61.0488 39.9161 61.157 39.895 61.266 39.8966C61.373 39.8965 61.4787 39.9188 61.5765 39.962C61.6744 40.0051 61.7621 40.0683 61.8341 40.1473C61.9113 40.2223 61.9726 40.312 62.0145 40.4111C62.0565 40.5102 62.0781 40.6167 62.0782 40.7243V49.2499C62.0881 49.4478 62.0195 49.6416 61.8874 49.7892C61.8309 49.8507 61.7623 49.9 61.686 49.934C61.6096 49.968 61.5271 49.9859 61.4436 49.9867C61.2701 49.9856 61.0997 49.9412 60.9477 49.8575C60.7958 49.7737 60.6672 49.6534 60.5737 49.5073L55.7783 42.9899V49.1456C55.7782 49.2532 55.7565 49.3597 55.7146 49.4588C55.6727 49.5579 55.6113 49.6476 55.5342 49.7226C55.4622 49.8016 55.3744 49.8648 55.2766 49.908C55.1788 49.9511 55.073 49.9734 54.9661 49.9733C54.8571 49.9749 54.7489 49.9538 54.6484 49.9114C54.548 49.869 54.4574 49.8062 54.3825 49.727C54.3049 49.6514 54.2433 49.561 54.2014 49.4611C54.1594 49.3612 54.138 49.254 54.1384 49.1456Z" fill="white"/>
<path d="M65.5421 46.9688C65.2624 46.3206 65.1182 45.6221 65.1182 44.9161C65.1182 44.2102 65.2624 43.5117 65.5421 42.8635C65.7993 42.2558 66.1767 41.7063 66.6516 41.248C67.1149 40.8114 67.6532 40.4619 68.2405 40.2162C68.816 39.9658 69.4369 39.8367 70.0645 39.8367C70.6922 39.8367 71.3131 39.9658 71.8886 40.2162C72.4755 40.4614 73.0131 40.811 73.4752 41.248C73.954 41.7053 74.3352 42.2549 74.5959 42.8635C74.8755 43.5117 75.0198 44.2102 75.0198 44.9161C75.0198 45.6221 74.8755 46.3206 74.5959 46.9688C74.3357 47.5777 73.9545 48.1273 73.4752 48.5843C73.0126 49.0212 72.4752 49.3715 71.8886 49.6183C71.3127 49.8672 70.6919 49.9956 70.0645 49.9956C69.4371 49.9956 68.8164 49.8672 68.2405 49.6183C67.6538 49.3724 67.1158 49.0237 66.6516 48.5887C66.1759 48.1294 65.7984 47.5783 65.5421 46.9688ZM67.071 43.4715C66.7117 44.3995 66.7117 45.4283 67.071 46.3563C67.2344 46.7786 67.4803 47.1641 67.7944 47.4903C68.0932 47.7951 68.4481 48.0393 68.8396 48.2092C69.2284 48.3804 69.6486 48.4688 70.0734 48.4688C70.4982 48.4688 70.9184 48.3804 71.3072 48.2092C71.6985 48.0388 72.0533 47.7947 72.3524 47.4903C72.6665 47.1641 72.9124 46.7786 73.0758 46.3563C73.4352 45.4283 73.4352 44.3995 73.0758 43.4715C72.9123 43.0503 72.6681 42.6651 72.3568 42.3376C72.0584 42.0334 71.7043 41.7893 71.3139 41.6186C70.9239 41.4474 70.5026 41.359 70.0767 41.359C69.6508 41.359 69.2296 41.4474 68.8396 41.6186C68.4485 41.7893 68.0937 42.0334 67.7944 42.3376C67.479 42.6648 67.2323 43.0519 67.0688 43.476L67.071 43.4715Z" fill="white"/>
<path d="M77.1545 41.1415C77.0849 41.0792 77.0291 41.003 76.9909 40.9177C76.9527 40.8325 76.9328 40.7401 76.9326 40.6467C76.9322 40.5525 76.9517 40.4593 76.99 40.3732C77.0282 40.2872 77.0843 40.2102 77.1545 40.1474C77.2198 40.0801 77.2982 40.0269 77.3848 39.9911C77.4715 39.9552 77.5645 39.9374 77.6582 39.9388H83.9182C84.0114 39.9385 84.1037 39.9566 84.1898 39.992C84.276 40.0275 84.3543 40.0796 84.4202 40.1453C84.4862 40.2111 84.5385 40.2892 84.5742 40.3753C84.61 40.4613 84.6283 40.5535 84.6283 40.6467C84.626 40.8337 84.5502 41.0122 84.4174 41.1439C84.2845 41.2755 84.1052 41.3496 83.9182 41.3501H81.6393V49.1302C81.6408 49.2422 81.6194 49.3534 81.5763 49.4569C81.5331 49.5603 81.4692 49.6538 81.3885 49.7315C81.3132 49.8128 81.2219 49.8774 81.1203 49.9213C81.0186 49.9653 80.909 49.9875 80.7982 49.9867C80.6854 49.9884 80.5735 49.9667 80.4696 49.9227C80.3656 49.8788 80.272 49.8137 80.1947 49.7315C80.1143 49.6535 80.0507 49.5599 80.0076 49.4566C79.9645 49.3532 79.9428 49.2422 79.9439 49.1302V41.3501H77.6582C77.5645 41.3515 77.4715 41.3337 77.3848 41.2979C77.2982 41.262 77.2198 41.2088 77.1545 41.1415Z" fill="white"/>
<path d="M87.6157 49.0214V40.8109C87.6119 40.6943 87.6318 40.5781 87.6741 40.4694C87.7164 40.3607 87.7804 40.2617 87.862 40.1784C87.9445 40.0947 88.0435 40.0292 88.1528 39.986C88.2621 39.9428 88.3793 39.923 88.4967 39.9277H93.5206C93.6133 39.9267 93.7053 39.9447 93.7908 39.9805C93.8763 40.0164 93.9535 40.0694 94.0177 40.1363C94.0871 40.1983 94.1427 40.2742 94.1809 40.3591C94.2191 40.4439 94.2391 40.5358 94.2396 40.6289C94.239 40.8171 94.164 40.9973 94.031 41.1304C93.8979 41.2634 93.7177 41.3384 93.5295 41.339H89.2556V44.1861H92.0938C92.1876 44.185 92.2807 44.2027 92.3676 44.2381C92.4545 44.2736 92.5334 44.326 92.5997 44.3924C92.6688 44.4542 92.7242 44.5298 92.7625 44.6142C92.8007 44.6987 92.8208 44.7902 92.8216 44.8829C92.8212 44.9775 92.8013 45.0711 92.7631 45.1578C92.7249 45.2445 92.6693 45.3223 92.5997 45.3866C92.535 45.4561 92.4567 45.5117 92.3697 45.5498C92.2827 45.588 92.1888 45.6079 92.0938 45.6085H89.2556V48.4933H93.6649C93.7579 48.4925 93.8501 48.5106 93.9359 48.5464C94.0217 48.5823 94.0994 48.6352 94.1642 48.7019C94.2335 48.7639 94.2891 48.8398 94.3273 48.9247C94.3656 49.0095 94.3856 49.1014 94.3861 49.1945C94.3849 49.3823 94.3096 49.562 94.1767 49.6945C94.0437 49.8271 93.8637 49.9018 93.676 49.9024H88.5055C88.3883 49.907 88.2714 49.8873 88.1622 49.8445C88.053 49.8017 87.9538 49.7368 87.8709 49.6538C87.7879 49.5711 87.7226 49.4724 87.6787 49.3637C87.6349 49.255 87.6134 49.1386 87.6157 49.0214Z" fill="white"/>
<path d="M97.1553 47.9651C97.1544 47.8692 97.1737 47.7742 97.2119 47.6863C97.2502 47.5983 97.3065 47.5195 97.3772 47.4547C97.4434 47.3846 97.5232 47.3288 97.6117 47.2906C97.7002 47.2525 97.7956 47.2328 97.892 47.2328C98.0116 47.2253 98.131 47.2501 98.2377 47.3048C98.3443 47.3595 98.4342 47.442 98.4978 47.5435C98.7243 47.8726 99.0275 48.1416 99.3813 48.3272C99.7351 48.5128 100.129 48.6094 100.528 48.6086C100.83 48.6114 101.131 48.5619 101.416 48.4622C101.69 48.367 101.933 48.2008 102.122 47.9806C102.307 47.7596 102.406 47.4791 102.401 47.1906C102.408 46.9965 102.372 46.8034 102.295 46.625C102.218 46.4466 102.103 46.2874 101.957 46.1588C101.564 45.8427 101.111 45.6088 100.626 45.4709L99.8825 45.229C99.1698 45.0224 98.5129 44.6575 97.9608 44.1616C97.7355 43.9395 97.5589 43.6728 97.4423 43.3786C97.3258 43.0844 97.2719 42.7691 97.284 42.4529C97.279 41.9638 97.4349 41.4866 97.7278 41.0949C98.0325 40.6888 98.439 40.3704 98.9061 40.1717C99.4072 39.9538 99.9486 39.8442 100.495 39.85C101.037 39.8282 101.577 39.9337 102.071 40.158C102.565 40.3822 102.999 40.7191 103.34 41.1415C103.435 41.2696 103.484 41.4259 103.48 41.5853C103.481 41.675 103.464 41.764 103.43 41.8469C103.396 41.9297 103.345 42.0046 103.28 42.0668C103.216 42.1319 103.14 42.1832 103.055 42.2175C102.971 42.2519 102.881 42.2686 102.79 42.2665C102.678 42.2731 102.566 42.2506 102.465 42.2012C102.364 42.1519 102.278 42.0773 102.215 41.9847C102.035 41.7397 101.792 41.548 101.511 41.4299C101.191 41.2921 100.844 41.2241 100.495 41.2302C100.087 41.2147 99.6849 41.3349 99.3522 41.572C99.2216 41.6653 99.1129 41.7859 99.0334 41.9253C98.954 42.0648 98.9057 42.2198 98.892 42.3797C98.8783 42.5396 98.8995 42.7006 98.954 42.8515C99.0085 43.0025 99.0952 43.1398 99.2079 43.254C99.5203 43.5115 99.8787 43.7073 100.264 43.831L100.93 44.0529C101.986 44.4079 102.764 44.8369 103.264 45.3399C103.508 45.5805 103.7 45.8684 103.829 46.1858C103.958 46.5033 104.02 46.8437 104.012 47.1862C104.013 47.5321 103.937 47.8739 103.79 48.187C103.654 48.486 103.46 48.7552 103.22 48.9792C102.978 49.2039 102.705 49.3936 102.41 49.5428C102.112 49.6988 101.795 49.8159 101.467 49.8912C101.155 49.9636 100.835 50.0008 100.515 50.0022C99.8723 50.0085 99.2374 49.8625 98.662 49.5761C98.1095 49.2998 97.6344 48.8902 97.2796 48.3845C97.1984 48.2597 97.1552 48.114 97.1553 47.9651Z" fill="white"/>
</g>
<defs>
<clipPath id="clip0_145_1946">
<rect width="104.014" height="50" fill="white"/>
</clipPath>
</defs>
</svg>
